<?xml version="1.0" encoding="utf-8"?>
<!-- Generator: Adobe Illustrator 19.1.0, SVG Export Plug-In . SVG Version: 6.00 Build 0)  -->
<svg version="1.1" xmlns="http://www.w3.org/2000/svg" xmlns:xlink="http://www.w3.org/1999/xlink" x="0px" y="0px"
	 viewBox="0 0 72 72" style="enable-background:new 0 0 72 72;" xml:space="preserve">
<style type="text/css">
	.st0{fill:#2D77A9;}
	.st1{display:none;}
	.st2{display:inline;}
</style>
<g id="downloads_1_">
	<g>
		<path class="st0" d="M55.6,42L33.8,64L11.9,42l3.2-3.2l16.4,16.5V-0.1H36v55.4l16.4-16.5L55.6,42z M54,71.9H13.5v-4.5H54V71.9z"/>
	</g>
</g>
<g id="samples_1_" class="st1">
	<g class="st2">
		<path class="st0" d="M4.5,31.4c1.2,0,2.4-0.2,3.5-0.7c1.1-0.5,2.1-1.1,2.9-1.9s1.5-1.8,1.9-2.8c0.5-1.1,0.7-2.3,0.7-3.5
			c0-1.7,0-3.3-0.1-5c-0.1-1.7,0-3.3,0.2-4.9s0.6-3.1,1.1-4.6c0.6-1.5,1.5-2.8,2.8-4.1s2.7-2.2,4.4-2.9c1.7-0.7,3.4-1,5.2-1v4.5
			c-1.2,0-2.4,0.2-3.5,0.7c-1.1,0.5-2,1.1-2.8,1.9s-1.5,1.8-1.9,2.9C18.2,11,18,12.2,18,13.4c0,1.3,0,2.6,0.1,3.9
			c0,1.3,0.1,2.5,0,3.8s-0.1,2.4-0.3,3.6c-0.2,1.2-0.5,2.3-0.9,3.3C16.4,29,15.8,30,15,31c-0.8,1-1.8,1.9-3,2.7
			c1.2,0.8,2.2,1.7,3,2.7c0.8,1,1.4,2,1.8,3c0.4,1.1,0.8,2.2,0.9,3.3c0.2,1.2,0.3,2.4,0.3,3.6s0,2.5,0,3.8c0,1.3-0.1,2.6-0.1,3.9
			c0,1.2,0.2,2.4,0.7,3.5c0.5,1.1,1.1,2,1.9,2.8s1.8,1.5,2.8,1.9c1.1,0.5,2.3,0.7,3.5,0.7v4.5c-1.8,0-3.5-0.3-5.2-1
			c-1.7-0.7-3.1-1.7-4.4-2.9s-2.2-2.6-2.8-4.1c-0.6-1.5-0.9-3-1.1-4.6s-0.2-3.2-0.2-4.9c0.1-1.7,0.1-3.3,0.1-5
			c0-1.2-0.2-2.4-0.7-3.5c-0.5-1.1-1.1-2.1-1.9-2.9S9.1,37.1,8,36.6c-1.1-0.5-2.3-0.7-3.5-0.7V31.4z M45-0.1c1.8,0,3.5,0.3,5.2,1
			c1.7,0.7,3.1,1.7,4.4,2.9s2.2,2.6,2.8,4.1s0.9,3,1.1,4.6s0.2,3.2,0.2,4.9c-0.1,1.7-0.1,3.3-0.1,5c0,1.2,0.2,2.4,0.7,3.5
			s1.1,2,1.9,2.8s1.8,1.5,2.8,1.9c1.1,0.5,2.3,0.7,3.5,0.7v4.5c-1.2,0-2.4,0.2-3.5,0.7c-1.1,0.5-2,1.1-2.8,1.9s-1.5,1.8-1.9,2.9
			c-0.5,1.1-0.7,2.3-0.7,3.5c0,1.7,0,3.3,0.1,5c0.1,1.7,0,3.3-0.2,4.9s-0.6,3.1-1.1,4.6s-1.5,2.8-2.8,4.1s-2.7,2.2-4.4,2.9
			c-1.7,0.7-3.4,1-5.2,1v-4.5c1.2,0,2.4-0.2,3.5-0.7c1.1-0.5,2.1-1.1,2.9-1.9s1.5-1.8,1.9-2.8s0.7-2.3,0.7-3.5c0-1.3,0-2.6-0.1-3.9
			c0-1.3-0.1-2.5,0-3.8s0.1-2.4,0.3-3.6s0.5-2.3,0.9-3.3s1.1-2.1,1.8-3c0.8-1,1.8-1.9,3-2.7c-1.2-0.8-2.2-1.7-3-2.7
			c-0.8-1-1.4-2-1.8-3s-0.8-2.2-0.9-3.3s-0.3-2.4-0.3-3.6s0-2.5,0-3.8c0-1.3,0.1-2.6,0.1-3.9c0-1.2-0.2-2.4-0.7-3.5
			c-0.5-1.1-1.1-2.1-1.9-2.9s-1.8-1.5-2.9-1.9c-1.1-0.5-2.3-0.7-3.5-0.7V-0.1z"/>
	</g>
</g>
<g id="projectgallery_1_" class="st1">
	<g class="st2">
		<path class="st0" d="M4.5-0.1h63v72h-63V-0.1z M63,67.4v-63H9v63H63z M45,8.9v4.5H13.5V8.9H45z M13.5,22.4v-4.5h45v4.5H13.5z
			 M13.5,31.4v-4.5h45v4.5H13.5z M13.5,44.9v-4.5h18v4.5H13.5z M13.5,53.9v-4.5h18v4.5H13.5z M13.5,62.9v-4.5h18v4.5H13.5z M36,62.9
			V40.4h22.5v22.5H36z M40.5,44.9v13.5H54V44.9H40.5z"/>
	</g>
</g>
</svg>
