<?xml version="1.0" encoding="utf-8"?>
<!-- Generator: Adobe Illustrator 19.1.0, SVG Export Plug-In . SVG Version: 6.00 Build 0)  -->
<svg version="1.1" id="Layer_1" xmlns="http://www.w3.org/2000/svg" xmlns:xlink="http://www.w3.org/1999/xlink" x="0px" y="0px"
	 viewBox="0 0 72 72" style="enable-background:new 0 0 72 72;" xml:space="preserve">
<style type="text/css">
	.st0{display:none;}
	.st1{display:inline;}
	.st2{fill:#2D77A9;}
</style>
<g id="Layer_1_1_">
</g>
<g id="Layer_4" class="st0">
	<g class="st1">
		<path class="st2" d="M67.5,17.8v18H63V25.4L42.8,45.7l-9-9L9,61.4v1.3h58.5v4.5h-63v-63H9V55l24.8-24.7l9,9l17.1-17.1H49.5v-4.5
			h18V17.8z"/>
	</g>
</g>
<g id="Layer_3" class="st0">
	<g class="st1">
		<path class="st2" d="M38.3,13.3c1.5,0,3,0.2,4.4,0.7s2.8,1,4,1.8s2.4,1.7,3.3,2.9s1.8,2.4,2.5,3.8c2.1-0.3,4.1-0.1,5.9,0.5
			s3.4,1.6,4.8,3s2.4,2.9,3.2,4.7c0.8,1.8,1.2,3.8,1.2,5.8c1.4,1.2,2.5,2.6,3.3,4.3S72,44,72,45.9c0,1.7-0.3,3.4-1,4.9
			s-1.5,2.8-2.6,3.9s-2.4,2-3.9,2.6s-3.1,1-4.8,1H13.5c-1.9,0-3.6-0.4-5.3-1.1s-3-1.7-4.2-2.9S1.8,51.6,1.1,50S0,46.6,0,44.8
			s0.3-3.5,1-5.1s1.6-3,2.7-4.2s2.5-2.2,4.1-2.9s3.2-1.2,5-1.2c1.3-1.4,2.8-2.5,4.5-3.3s3.5-1.2,5.4-1.2c0.3-1.9,0.8-3.7,1.8-5.4
			s2.1-3.1,3.5-4.3s3-2.2,4.7-2.8C34.4,13.8,36.3,13.3,38.3,13.3z M38.3,17.8c-1.5,0-3,0.3-4.4,0.9s-2.6,1.4-3.6,2.4
			s-1.8,2.2-2.4,3.6S27,27.5,27,29c0,0.6,0.1,1.2,0.2,1.7s0.3,1.1,0.4,1.7c-0.7-0.4-1.4-0.7-2.2-0.9s-1.5-0.3-2.3-0.3
			c-1.7,0-3.2,0.4-4.7,1.2s-2.6,2-3.5,3.4c-1.4-0.2-2.7-0.2-3.9,0.2s-2.4,1-3.3,1.8s-1.7,1.8-2.3,3s-0.9,2.5-0.9,3.8
			c0,1.2,0.2,2.4,0.7,3.5s1.1,2,1.9,2.8S8.9,52.5,10,53s2.3,0.7,3.5,0.7h46.1c1.1,0,2.1-0.2,3.1-0.6s1.8-1,2.5-1.7s1.3-1.5,1.7-2.5
			s0.6-2,0.6-3.1c0-1.6-0.5-3.1-1.4-4.4s-2.1-2.3-3.6-2.9c0.1-0.5,0.3-0.9,0.4-1.4s0.1-0.9,0.1-1.4c0-1.2-0.2-2.4-0.7-3.5
			s-1.1-2.1-1.9-2.9s-1.8-1.5-2.9-1.9s-2.3-0.7-3.5-0.7c-0.8,0-1.6,0.1-2.4,0.4s-1.5,0.6-2.2,0.9c-0.1-1.4-0.5-2.8-1.1-4
			s-1.5-2.3-2.5-3.3s-2.2-1.7-3.4-2.2S39.7,17.8,38.3,17.8z"/>
	</g>
</g>
<g id="Layer_2" class="st0">
	<g class="st1">
		<path class="st2" d="M0,11h72v31.5h-4.5v18H0V11z M67.5,38V15.5h-63V56H63V38H67.5z M13.5,20v4.5H9V20H13.5z M13.5,29v4.5H9V29
			H13.5z M13.5,38v4.5H9V38H13.5z M13.5,47v4.5H9V47H13.5z M31.5,20v13.5H18V20H31.5z M22.5,38v4.5H18V38H22.5z M22.5,47v4.5H18V47
			H22.5z M27,42.5V38h4.5v4.5H27z M27,51.5V47h4.5v4.5H27z M40.5,20v4.5H36V20H40.5z M40.5,29v4.5H36V29H40.5z M40.5,38v4.5H36V38
			H40.5z M40.5,47v4.5H36V47H40.5z M58.5,20v9H54v-9H58.5z M58.5,38v13.5H54V38H58.5z"/>
	</g>
</g>
<g>
	<path class="st2" d="M36,0l32,16v40L36,72L4,56V16L36,0z M9,21.5V53l24.6,12.3V33.9L9,21.5z M36,29.6l9.2-4.5L21.3,12.9L12,17.5
		L36,29.6z M60.1,17.5L36,5.5l-9.3,4.6l23.9,12.1L60.1,17.5z M38.5,65.3L63.1,53V21.5L38.5,33.9V65.3z"/>
</g>
</svg>
