<?xml version="1.0" encoding="utf-8"?>
<!-- Generator: Adobe Illustrator 18.1.1, SVG Export Plug-In . SVG Version: 6.00 Build 0)  -->
<svg version="1.1" xmlns="http://www.w3.org/2000/svg" xmlns:xlink="http://www.w3.org/1999/xlink" x="0px" y="0px"
	 viewBox="0 0 72 72" enable-background="new 0 0 72 72" xml:space="preserve">
<g id="Layer_1">
</g>
<g id="Layer_5">
	<g>
		<path fill="#2D77A9" d="M69.8,2v67.5H2.3V2H69.8z M65.3,6.5H51.8V29h2.8c0.4-0.7,0.9-1.2,1.7-1.6s1.5-0.6,2.3-0.6
			c0.6,0,1.2,0.1,1.8,0.4s1,0.6,1.4,1s0.7,0.9,1,1.4s0.4,1.1,0.4,1.8s-0.1,1.2-0.4,1.8s-0.6,1-1,1.4s-0.9,0.7-1.4,1
			s-1.1,0.4-1.8,0.4c-0.8,0-1.5-0.2-2.3-0.6s-1.3-1-1.7-1.6h-7.3v-27H6.8v18h27V65h4.5V15.5H26.4c-0.4,0.7-0.9,1.2-1.7,1.6
			s-1.5,0.6-2.3,0.6c-0.6,0-1.2-0.1-1.8-0.4s-1-0.6-1.4-1s-0.7-0.9-1-1.4S18,13.9,18,13.3s0.1-1.2,0.4-1.8s0.6-1,1-1.4
			s0.9-0.7,1.4-1s1.1-0.4,1.8-0.4c0.8,0,1.5,0.2,2.3,0.6s1.3,1,1.7,1.6h16.3v54h4.5V42.5h7.3c0.4-0.7,0.9-1.2,1.7-1.6
			s1.5-0.6,2.3-0.6c0.6,0,1.2,0.1,1.8,0.4s1,0.6,1.4,1s0.7,0.9,1,1.4s0.4,1.1,0.4,1.8s-0.1,1.2-0.4,1.8s-0.6,1-1,1.4s-0.9,0.7-1.4,1
			s-1.1,0.4-1.8,0.4c-0.8,0-1.5-0.2-2.3-0.6s-1.3-1-1.7-1.6h-2.8v18h13.5V6.5z M6.8,65h13.5V42.5h-2.8c-0.4,0.7-0.9,1.2-1.7,1.6
			s-1.5,0.6-2.3,0.6c-0.6,0-1.2-0.1-1.8-0.4s-1-0.6-1.4-1s-0.7-0.9-1-1.4S9,40.9,9,40.3s0.1-1.2,0.4-1.8s0.6-1,1-1.4s0.9-0.7,1.4-1
			s1.1-0.4,1.8-0.4c0.8,0,1.5,0.2,2.3,0.6s1.3,1,1.7,1.6h7.3v27h4.5V29H6.8V65z"/>
	</g>
</g>
<g id="Layer_4" display="none">
	<g display="inline">
		<path fill="#2D77A9" d="M67.5,17.8v18H63V25.4L42.8,45.7l-9-9L9,61.4v1.3h58.5v4.5h-63v-63H9v50.8l24.8-24.7l9,9l17.1-17.1H49.5
			v-4.5H67.5z"/>
	</g>
</g>
<g id="Layer_3" display="none">
	<g display="inline">
		<path fill="#2D77A9" d="M38.3,13.3c1.5,0,3,0.2,4.4,0.7s2.8,1,4,1.8s2.4,1.7,3.3,2.9s1.8,2.4,2.5,3.8c2.1-0.3,4.1-0.1,5.9,0.5
			s3.4,1.6,4.8,3s2.4,2.9,3.2,4.7s1.2,3.8,1.2,5.8c1.4,1.2,2.5,2.6,3.3,4.3S72,44,72,45.9c0,1.7-0.3,3.4-1,4.9s-1.5,2.8-2.6,3.9
			s-2.4,2-3.9,2.6s-3.1,1-4.8,1H13.5c-1.9,0-3.6-0.4-5.3-1.1S5.2,55.5,4,54.3S1.8,51.6,1.1,50S0,46.6,0,44.8c0-1.8,0.3-3.5,1-5.1
			s1.6-3,2.7-4.2s2.5-2.2,4.1-2.9s3.2-1.2,5-1.2c1.3-1.4,2.8-2.5,4.5-3.3s3.5-1.2,5.4-1.2c0.3-1.9,0.8-3.7,1.8-5.4s2.1-3.1,3.5-4.3
			s3-2.2,4.7-2.8S36.3,13.3,38.3,13.3z M38.3,17.8c-1.5,0-3,0.3-4.4,0.9s-2.6,1.4-3.6,2.4s-1.8,2.2-2.4,3.6S27,27.5,27,29
			c0,0.6,0.1,1.2,0.2,1.7s0.3,1.1,0.4,1.7c-0.7-0.4-1.4-0.7-2.2-0.9s-1.5-0.3-2.3-0.3c-1.7,0-3.2,0.4-4.7,1.2s-2.6,2-3.5,3.4
			c-1.4-0.2-2.7-0.2-3.9,0.2s-2.4,1-3.3,1.8s-1.7,1.8-2.3,3s-0.9,2.5-0.9,3.8c0,1.2,0.2,2.4,0.7,3.5s1.1,2,1.9,2.8S8.9,52.5,10,53
			s2.3,0.7,3.5,0.7h46.1c1.1,0,2.1-0.2,3.1-0.6s1.8-1,2.5-1.7s1.3-1.5,1.7-2.5s0.6-2,0.6-3.1c0-1.6-0.5-3.1-1.4-4.4
			s-2.1-2.3-3.6-2.9c0.1-0.5,0.3-0.9,0.4-1.4s0.1-0.9,0.1-1.4c0-1.2-0.2-2.4-0.7-3.5s-1.1-2.1-1.9-2.9s-1.8-1.5-2.9-1.9
			s-2.3-0.7-3.5-0.7c-0.8,0-1.6,0.1-2.4,0.4s-1.5,0.6-2.2,0.9c-0.1-1.4-0.5-2.8-1.1-4s-1.5-2.3-2.5-3.3s-2.2-1.7-3.4-2.2
			S39.7,17.8,38.3,17.8z"/>
	</g>
</g>
<g id="Layer_2" display="none">
	<g display="inline">
		<path fill="#2D77A9" d="M0,11h72v31.5h-4.5v18H0V11z M67.5,38V15.5h-63V56H63V38H67.5z M13.5,20v4.5H9V20H13.5z M13.5,29v4.5H9V29
			H13.5z M13.5,38v4.5H9V38H13.5z M13.5,47v4.5H9V47H13.5z M31.5,20v13.5H18V20H31.5z M22.5,38v4.5H18V38H22.5z M22.5,47v4.5H18V47
			H22.5z M27,42.5V38h4.5v4.5H27z M27,51.5V47h4.5v4.5H27z M40.5,20v4.5H36V20H40.5z M40.5,29v4.5H36V29H40.5z M40.5,38v4.5H36V38
			H40.5z M40.5,47v4.5H36V47H40.5z M58.5,20v9H54v-9H58.5z M58.5,38v13.5H54V38H58.5z"/>
	</g>
</g>
</svg>
